PathFileType	4	(X/Y/Z)	/Users/niels/Desktop/University/Third Semester/Perception and Action/Exam/Gymnastics Motion Tracking/Code for Gym Tracking/Analyzed Data/Backflip/id1_3_pettlep_Sports2D/id1_3_pettlep_Sports2D_px_person00.trc
DataRate	CameraRate	NumFrames	NumMarkers	Units	OrigDataRate	OrigDataStartFrame	OrigNumFrames
59.90876837303599	59.90876837303599	11	22	m	59.90876837303599	99	198
Frame#	Time	Hip			RHip			RKnee			RAnkle			RBigToe			RSmallToe			RHeel			LHip			LKnee			LAnkle			LBigToe			LSmallToe			LHeel			Neck			Head			Nose			RShoulder			RElbow			RWrist			LShoulder			LElbow			LWrist		
		X1	Y1	Z1	X2	Y2	Z2	X3	Y3	Z3	X4	Y4	Z4	X5	Y5	Z5	X6	Y6	Z6	X7	Y7	Z7	X8	Y8	Z8	X9	Y9	Z9	X10	Y10	Z10	X11	Y11	Z11	X12	Y12	Z12	X13	Y13	Z13	X14	Y14	Z14	X15	Y15	Z15	X16	Y16	Z16	X17	Y17	Z17	X18	Y18	Z18	X19	Y19	Z19	X20	Y20	Z20	X21	Y21	Z21	X22	Y22	Z22
99	1.6525126903553298	1.013387731204117	-0.519967174081974	0.0	1.0066302129609754	-0.5183679803620247	0.0	1.0701751444946634	-0.5923195444233698	0.0	1.0495969554760536	-0.6828276252265207	0.0	1.078705238261572	-0.6967382622920383	0.0	1.0701906415563964	-0.6993697121435126	0.0	1.039708380053247	-0.6923284411817303	0.0	1.0265957112049606	-0.5198033146200959	0.0	1.0844510780815875	-0.5877315691428442	0.0	1.0581794199343972	-0.6784931882897969	0.0	1.0878328127422283	-0.6918711222979521	0.0	1.0837192945967995	-0.6880421926905265	0.0	1.0451572971036274	-0.6890690674058155	0.0	1.112210405164071	-0.4426815543288939	0.0	1.1757845742173745	-0.41577078366081555	0.0	1.162844554438832	-0.4382691393635695	0.0	1.0922937755690412	-0.44050664050434307	0.0	1.0306982049875992	-0.42099510265428813	0.0	0.9809280805352779	-0.3952102548431817	0.0	1.1044466593849884	-0.44771303262414275	0.0	1.0385739094306372	-0.43115331446014177	0.0	0.9950138601071651	-0.4264689109892456	0.0
100	1.6692047377326564	1.0120440929417913	-0.5229077583529952	0.0	1.0054114046878548	-0.5213864811753508	0.0	1.0703463050777329	-0.5933461361166933	0.0	1.0488590802908728	-0.6823962594862727	0.0	1.077743012636626	-0.6967125425184167	0.0	1.0692397479698006	-0.6990546807776122	0.0	1.0393701027050408	-0.6917593006078553	0.0	1.025186320027334	-0.5225881668707946	0.0	1.0850262897729948	-0.5888072055538268	0.0	1.0576095870741427	-0.6788184848476627	0.0	1.08752466085794	-0.6928544061871224	0.0	1.0830005157982627	-0.6890272389669201	0.0	1.0448480373155926	-0.6892659148179751	0.0	1.1121064252844857	-0.44684936587637575	0.0	1.1749549330616844	-0.4192300896407889	0.0	1.16217941619969	-0.44162736723323764	0.0	1.0921368577095012	-0.4462379416601045	0.0	1.0301610955478142	-0.43170117228856175	0.0	0.9799949514497635	-0.4115513006727265	0.0	1.103939952000412	-0.4523009150824686	0.0	1.0381155969762141	-0.439754094010972	0.0	0.9938408498017887	-0.4381047674922622	0.0
101	1.6858967851099829	1.0109949183877345	-0.5264497239253183	0.0	1.00453190421784	-0.5249876335385253	0.0	1.0702916591482285	-0.5953589536292974	0.0	1.047875538894351	-0.6826570008760038	0.0	1.0764579491854673	-0.6974844311366423	0.0	1.0679777895577165	-0.6994548712472382	0.0	1.0388084650915468	-0.6917841089572239	0.0	1.0240195198992739	-0.5259508114884667	0.0	1.0853332419178134	-0.5909633764372039	0.0	1.0568815960947555	-0.680208602699329	0.0	1.087128705937429	-0.6949838705611807	0.0	1.0821586501619402	-0.6911545996880465	0.0	1.0443596577074659	-0.6904484451595851	0.0	1.1117096054339364	-0.45090015472651435	0.0	1.1735966965959965	-0.42223346193338196	0.0	1.1611517212630378	-0.4447109029821142	0.0	1.0917899950153607	-0.45197635283482174	0.0	1.030052843478303	-0.44370527439653895	0.0	0.9801912446094404	-0.4302738666584597	0.0	1.103161775522252	-0.4569150443553323	0.0	1.0381320834463683	-0.44962013226238834	0.0	0.9938658261629033	-0.4518232170277918	0.0
102	1.7025888324873095	1.0102573279590115	-0.5305866916602945	0.0	1.00398267683788	-0.5291781071865221	0.0	1.0699993718499161	-0.5984304630050695	0.0	1.0466543523447864	-0.6836949036456306	0.0	1.074856498114083	-0.6991602638553905	0.0	1.0663702546129132	-0.7006767574498939	0.0	1.0379979589636843	-0.6924925728729415	0.0	1.0231238083330256	-0.5299135097117377	0.0	1.085386865636642	-0.5942566254826399	0.0	1.0560446547572255	-0.6827495451592754	0.0	1.086688890376307	-0.6983429049326622	0.0	1.0812690516851238	-0.6944984362624934	0.0	1.0436954294475067	-0.6927201525706062	0.0	1.1109548428190008	-0.45476674139974504	0.0	1.1716224551006433	-0.42473020258973204	0.0	1.1597093409833623	-0.44747456201999886	0.0	1.0911881843976097	-0.4576183578888149	0.0	1.0305539861700797	-0.45678179842861505	0.0	0.9819600034230692	-0.4509376629661957	0.0	1.1020733300768217	-0.461493795015766	0.0	1.0387725452001932	-0.4606117776774386	0.0	0.9954854886172195	-0.4674193227563121	0.0
103	1.7192808798646362	1.0098422483846494	-0.5353071612442624	0.0	1.0037461260150773	-0.5339571709719692	0.0	1.0694723193974465	-0.602609296593782	0.0	1.0452286971215043	-0.6856007520223907	0.0	1.0729792907972764	-0.7018472798157107	0.0	1.0644035038927389	-0.7028298219693077	0.0	1.0369308178901455	-0.6939945013730865	0.0	1.0225121815360871	-0.5344896872265734	0.0	1.0852212821760343	-0.5987030651208806	0.0	1.0551634981990212	-0.686491108594177	0.0	1.0862538826931878	-0.702978064387325	0.0	1.0804135978102958	-0.6990967775945337	0.0	1.0428862228591447	-0.696156441676162	0.0	1.1097721779084837	-0.4584076506210255	0.0	1.1689472535705885	-0.4266993872512902	0.0	1.1577938192257495	-0.4498972303248087	0.0	1.0902714360158623	-0.4630833771200724	0.0	1.031849627143289	-0.4706091212500393	0.0	0.9857227396881937	-0.4728855618062606	0.0	1.1006334491836103	-0.4659755708749518	0.0	1.040176412827912	-0.4724734155137141	0.0	0.9990428113018035	-0.48445269716524075	0.0
104	1.7359729272419626	1.0097471946451708	-0.5405940248092209	0.0	1.0037964994187294	-0.5393195167553264	0.0	1.0687402002182351	-0.6079106761439159	0.0	1.043670305015383	-0.6884741479108589	0.0	1.0709228036198306	-0.7056450377510537	0.0	1.062113430476806	-0.7060211144405317	0.0	1.035630328292135	-0.6964220748456608	0.0	1.0221766650126256	-0.5396804343914542	0.0	1.0848827096241798	-0.6042745167357108	0.0	1.0543082234969237	-0.6914444676007354	0.0	1.08588159124149	-0.7088763311742433	0.0	1.0796670763388565	-0.7049340561801372	0.0	1.0419740363339176	-0.700793179842719	0.0	1.1080945523183272	-0.46180882019681563	0.0	1.165497227002812	-0.42815255514583	0.0	1.1553452035175875	-0.4519889108421446	0.0	1.0889989185707811	-0.46831069924717866	0.0	1.0341347389493714	-0.48476169873257785	0.0	0.9918483190769936	-0.4952508072854725	0.0	1.0988032670546186	-0.47030613253051473	0.0	1.0424816342469092	-0.4848286868172839	0.0	1.0048097319656857	-0.5022303056908312	0.0
105	1.7526649746192893	1.0099514085949524	-0.5464165072978419	0.0	1.0041002836185284	-0.5452497196832771	0.0	1.067871584596886	-0.6143034878846817	0.0	1.042103310231281	-0.6924288237157634	0.0	1.068862450173169	-0.7106356742894578	0.0	1.0596177750445537	-0.7103529385097034	0.0	1.0341677747548697	-0.699931611873718	0.0	1.0220893376175375	-0.545466725266113	0.0	1.0844200124862806	-0.6108963497290114	0.0	1.05354410383449	-0.6975815588605954	0.0	1.0856472226553968	-0.7159387632054166	0.0	1.0790877538564618	-0.7119188628962486	0.0	1.0409956726016762	-0.7066202476257438	0.0	1.1058669715418832	-0.464977845166146	0.0	1.1612205607831891	-0.42913708798697336	0.0	1.152310373403489	-0.4537856926812747	0.0	1.087356997126996	-0.47325455577504977	0.0	1.037602614119303	-0.4987167675952365	0.0	1.0006295560761291	-0.5169957500564393	0.0	1.096555356536938	-0.47444539422920196	0.0	1.0458288501771311	-0.4971997390121663	0.0	1.0129949476927986	-0.5198367786953394	0.0
106	1.7693570219966157	1.0104162223998883	-0.5527170119932303	0.0	1.0046211768676967	-0.5517079791240651	0.0	1.0669833975374325	-0.621699479725252	0.0	1.040711914021909	-0.6976034407794113	0.0	1.067064081953139	-0.7168805814040139	0.0	1.057133795845224	-0.7159321689241106	0.0	1.0326746833786966	-0.7047113641604427	0.0	1.022204419932304	-0.551795345478019	0.0	1.0838752750846066	-0.618448039806417	0.0	1.052927321219621	-0.7048326012098675	0.0	1.0856362342512116	-0.7239651077891608	0.0	1.0787166950996527	-0.7198694621917846	0.0	1.0399785948230618	-0.713580506763026	0.0	1.1030561671445616	-0.4679377987606778	0.0	1.1560983355425756	-0.42973305771010684	0.0	1.1486541182700143	-0.45533786544240507	0.0	1.0853565203392435	-0.4778805562226451	0.0	1.042399972947907	-0.5118827638106331	0.0	1.0122457096452875	-0.5369686728986568	0.0	1.0938808795000552	-0.478369694008932	0.0	1.0503340073486138	-0.5090462450928974	0.0	1.0237284258996284	-0.536201313522833	0.0
107	1.7860490693739424	1.0110913960014174	-0.5594056126975339	0.0	1.0053337772939308	-0.5586182358098222	0.0	1.0662529913089502	-0.6299478913334614	0.0	1.039741136213218	-0.7041759489329699	0.0	1.0658790460800938	-0.7244249723527207	0.0	1.0549778766259712	-0.7228886311381152	0.0	1.0313450099636163	-0.710993839951525	0.0	1.022457824800585	-0.5585696504701226	0.0	1.0832717129318417	-0.6267663329294096	0.0	1.052502952412019	-0.7130813539699576	0.0	1.085912415313012	-0.7326472651537569	0.0	1.0785773657326274	-0.7285083928483974	0.0	1.038941065846442	-0.7215668651287832	0.0	1.0996610026562803	-0.4707222115110964	0.0	1.1501529029416655	-0.43003981374230876	0.0	1.1443697176676801	-0.4566976694710748	0.0	1.0830313829037597	-0.48216316405030846	0.0	1.048571582581108	-0.5236371433411834	0.0	1.026674216079802	-0.5539798464123897	0.0	1.0907936225360333	-0.4820649004455478	0.0	1.0560286691407665	-0.5197969753399063	0.0	1.0369486993951849	-0.5501905360200021	0.0
108	1.8027411167512688	1.0119283395252958	-0.5663694184811489	0.0	1.0062372620284863	-0.5658680702003815	0.0	1.065887602649905	-0.6388400933742785	0.0	1.0394493879138313	-0.7123071380394633	0.0	1.0656605456903914	-0.7332319960629357	0.0	1.0534980820673752	-0.7313074848988949	0.0	1.0303927547326448	-0.7189828255664248	0.0	1.0227752078249288	-0.5656573890068812	0.0	1.0826017216400012	-0.6356510684346671	0.0	1.0522951552245947	-0.7221593481586768	0.0	1.0864782858638342	-0.7415613520860695	0.0	1.0786642669929605	-0.7374583115521554	0.0	1.0378903549881904	-0.7304132560436939	0.0	1.0957206456194468	-0.4733646521122726	0.0	1.1434538483354384	-0.4301572317781542	0.0	1.1394863156506256	-0.4579071206161498	0.0	1.0804395923979064	-0.4860808621468024	0.0	1.0560131154832215	-0.5333642599424165	0.0	1.043566760399457	-0.5669090480308989	0.0	1.0873300098075969	-0.48551096101691965	0.0	1.062798550892987	-0.5288667582119209	0.0	1.0522520417770982	-0.5607285122031213	0.0
109	1.8194331641285955	1.0128966477926085	-0.5734779907642226	0.0	1.0073550439922143	-0.5733095535013907	0.0	1.0659937533749138	-0.6481288899127798	0.0	1.0399691715945922	-0.7219415822988683	0.0	1.0665449755545329	-0.7429979468554258	0.0	1.0528825006119764	-0.7409939202135516	0.0	1.0299337566375657	-0.728610110069877	0.0	1.0230953168156613	-0.5729032987376349	0.0	1.081822697333551	-0.6448746805048647	0.0	1.0522920313143218	-0.7318408750995143	0.0	1.0872526402959675	-0.7501855118860608	0.0	1.0789232838984535	-0.7462494969484684	0.0	1.0368280483935037	-0.7398824970584127	0.0	1.0913145518200624	-0.4758808170422139	0.0	1.1361189591424645	-0.4301701679412747	0.0	1.134070091045027	-0.4589870582083152	0.0	1.0776569952092991	-0.48960291520131555	0.0	1.0644430146628692	-0.5404932913487016	0.0	1.0621819915756037	-0.5748275272501876	0.0	1.0835441152738998	-0.48866514540667405	0.0	1.0703529568707169	-0.5356828397048012	0.0	1.0688652821684426	-0.566916621674833	0.0
